<svg width="25" height="14" viewBox="0 0 25 14" fill="none" xmlns="http://www.w3.org/2000/svg">
<path d="M12.5 14.002C12.039 13.9882 11.6458 13.823 11.2932 13.4513L0.947457 2.71385C0.649152 2.42476 0.5 2.03932 0.5 1.59881C0.5 0.704018 1.17797 0.00195278 2.05932 0.0019529C2.49322 0.00195296 2.88644 0.180911 3.19831 0.483763L12.5 10.1612L21.8017 0.483765C22.1 0.180913 22.4932 0.00195635 22.9271 0.00195641C23.822 0.00195652 24.5 0.704021 24.5 1.59881C24.5 2.03932 24.3508 2.42477 24.0525 2.71385L13.7068 13.4513C13.3542 13.823 12.961 14.002 12.5 14.002Z" fill="#213551"/>
</svg>
