<svg fill="none" height="24" viewBox="0 0 24 24" width="24" xmlns="http://www.w3.org/2000/svg" xmlns:xlink="http://www.w3.org/1999/xlink"><linearGradient id="a" gradientUnits="userSpaceOnUse" x1="1158.85" x2="1158.85" y1="2309.67" y2=".414154"><stop offset="0" stop-color="#2e783b"/><stop offset="1" stop-color="#36b23f"/></linearGradient><linearGradient id="b" gradientUnits="userSpaceOnUse" x1="1200" x2="1200" y1="2392.07" y2="0"><stop offset="0" stop-color="#f9f9f9"/><stop offset="1" stop-color="#fff"/></linearGradient><clipPath id="c"><path d="m0 0h24v24h-24z"/></clipPath><g clip-path="url(#c)"><path d="m.512212 11.8564c-.000563 2.0165.530438 3.9854 1.540128 5.7208l-1.636691 5.9295 6.115501-1.5911c1.69146.9137 3.58665 1.3925 5.51245 1.3926h.0051c6.3577 0 11.5329-5.1333 11.5357-11.4428.0012-3.05739-1.1977-5.93236-3.3759-8.09534-2.1778-2.16279-5.0742-3.354511-8.1603-3.355906-6.35836 0-11.533269 5.133026-11.535894 11.442246" fill="url(#a)"/><path d="m.100313 11.8527c-.0006567 2.089.549374 4.1283 1.595057 5.9259l-1.69537 6.1421 6.33478-1.6481c1.74544.9442 3.71062 1.4421 5.71032 1.4428h.0051c6.5858 0 11.947-5.3179 11.9498-11.8533.0011-3.16722-1.2409-6.14554-3.4969-8.38601-2.2563-2.24018-5.2563-3.47478767-8.4529-3.47609-6.58683 0-11.947262 5.31721-11.949887 11.8527zm3.772497 5.6163-.23653-.3725c-.99431-1.5688-1.51912-3.3816-1.51837-5.2431.00215-5.4321 4.45753-9.85154 9.93609-9.85154 2.6531.00112 5.1465 1.02735 7.0219 2.8893 1.8753 1.86214 2.9072 4.33749 2.9065 6.97024-.0024 5.4321-4.4579 9.8521-9.9322 9.8521h-.0039c-1.7825-.0009-3.53061-.4759-5.05518-1.3735l-.36281-.2135-3.75918.978 1.00368-3.6356z" fill="url(#b)"/><path d="m9.06358 6.89749c-.22368-.4933-.45909-.50325-.67181-.5119-.17419-.00745-.37331-.00689-.57225-.00689-.19912 0-.52265.07433-.79612.37061-.27375.29656-1.04513 1.01321-1.04513 2.47079 0 1.4577 1.06997 2.8663 1.21913 3.0642.14934.1975 2.06559 3.2844 5.1005 4.4719 2.5222.9869 3.0355.7906 3.5829.7411.5475-.0493 1.7666-.7165 2.0153-1.4083.249-.6917.249-1.2846.1743-1.4085-.0746-.1235-.2737-.1976-.5723-.3457-.2987-.1482-1.7666-.8649-2.0403-.9638-.2737-.0988-.4728-.1481-.6719.1485-.1991.2962-.7709.9634-.9452 1.161-.1741.198-.3484.2227-.6469.0745-.2987-.1487-1.2603-.4611-2.4012-1.4703-.88761-.7853-1.48686-1.7551-1.66105-2.0518-.17418-.2962-.01865-.4567.13107-.6043.13415-.1328.29868-.346.44812-.5189.14888-.17304.19856-.29649.29816-.49407.0996-.19777.0497-.37079-.02478-.51897-.07482-.14819-.65504-1.6134-.92054-2.19917z" fill="#fff"/></g></svg>