<svg fill="none" height="24" viewBox="0 0 24 24" width="24" xmlns="http://www.w3.org/2000/svg" xmlns:xlink="http://www.w3.org/1999/xlink"><linearGradient id="a" gradientUnits="userSpaceOnUse" x1="1200" x2="1200" y1="0" y2="2400"><stop offset="0" stop-color="#2aabee"/><stop offset="1" stop-color="#229ed9"/></linearGradient><clipPath id="b"><path d="m0 0h24v24h-24z"/></clipPath><g clip-path="url(#b)"><path d="m12 0c-3.18187 0-6.23625 1.26506-8.48438 3.51469-2.25044 2.25052-3.51499662 5.30265-3.51562 8.48531 0 3.1813 1.26562 6.2357 3.51562 8.4853 2.24813 2.2496 5.30251 3.5147 8.48438 3.5147 3.1819 0 6.2363-1.2651 8.4844-3.5147 2.25-2.2496 3.5156-5.304 3.5156-8.4853 0-3.18131-1.2656-6.23569-3.5156-8.48531-2.2481-2.24963-5.3025-3.51469-8.4844-3.51469z" fill="url(#a)"/><path d="m5.43184 11.8733c3.49875-1.524 5.83126-2.52885 6.99746-3.01429 3.3338-1.38619 4.0257-1.62694 4.4775-1.63509.0994-.0016.3207.02297.465.13968.12.09844.1538.23157.1707.32504.015.09337.0356.30618.0187.47231-.18 1.89745-.9619 6.50215-1.3594 8.62745-.1668.8992-.4987 1.2007-.8193 1.2302-.6975.0641-1.2263-.4605-1.9013-.9028-1.0556-.6925-1.6519-1.1234-2.6775-1.7989-1.18498-.7808-.4162-1.21.2588-1.9112.1762-.1836 3.2475-2.9764 3.3056-3.2297.0075-.0317.015-.1498-.0563-.21205-.0693-.06244-.1725-.04106-.2475-.02419-.1068.024-1.7925 1.13924-5.06246 3.34554-.47812.3289-.91125.4892-1.30125.4808-.4275-.0092-1.2525-.2423-1.86562-.4414-.75-.2443-1.34813-.3735-1.29563-.7884.02625-.216.32438-.4371.8925-.663z" fill="#fff"/></g></svg>