<svg fill="none" height="24" viewBox="0 0 18 24" width="18" xmlns="http://www.w3.org/2000/svg"><path clip-rule="evenodd" d="m3.26857 9.12012c1.29719 0 2.3495 1.03358 2.3495 2.30988 0 1.2741-1.05231 2.3077-2.3495 2.3077-1.29939 0-2.3517-1.0336-2.3517-2.3077 0-1.2763 1.05231-2.30988 2.3517-2.30988z" fill="#57b34c" fill-rule="evenodd"/><path d="m8.57942 5.90674c-2.28153 0-4.13106 1.6231-4.13106 3.62608 0 .51178.12209.99838.3411 1.43948.13711.2762.16805.6015.03007.8772l-.71284 1.4245 1.86928-.5773c.23325-.072.48396-.0352.70126.0761.59343.3038 1.11622.3861 1.90219.3861 2.28148 0 4.13108-1.6231 4.13108-3.62608s-1.8496-3.62608-4.13108-3.62608z" fill="#2d6645"/><path clip-rule="evenodd" d="m6.81821 23.2395c0-1.5255.04413-3.0553.00662-4.5786-.00441-.273-.01985-.6608-.15443-.9057-.13898-.2535-.49196-.5417-.71036-.7302-.64198-.5526-1.26189-1.0943-1.86636-1.688-.22723-.2232-.29121-.5395-.16766-.8299.12133-.2904.39489-.468.71477-.468h8.83541c.3199 0 .5935.1776.717.468.1213.2904.0574.6067-.1699.8299-.6044.5937-1.2243 1.1354-1.8663 1.6901-.2184.1864-.5714.4746-.7104.7281s-.15.6544-.1544.9317c-.0331 1.5168.0066 3.0358.0066 4.5526 0 .4204-.3486.7606-.7743.7606-.97734 0-1.95464 0-2.93195 0-.42577 0-.77434-.3402-.77434-.7606z" fill="#213551" fill-rule="evenodd"/><path clip-rule="evenodd" d="m4.64093 14.7998c2.39803 2.351 2.91647 2.078 2.95838 3.8418.0353 1.4301-.00662 3.1636-.00662 4.5981h2.93191c0-1.4258-.0375-3.1463-.0066-4.5677.0375-1.7942.5471-1.5082 2.9584-3.8722h-4.06588-.70375z" fill="#fefefe" fill-rule="evenodd"/><path clip-rule="evenodd" d="m14.4799 8.95996c1.306 0 2.3672 1.04004 2.3672 2.32504 0 1.2828-1.0612 2.3228-2.3672 2.3228s-2.3671-1.04-2.3671-2.3228c0-1.285 1.0611-2.32504 2.3671-2.32504z" fill="#367a46" fill-rule="evenodd"/><path clip-rule="evenodd" d="m6.0923.554688c1.12952 0 2.04505.899242 2.04505 2.008662 0 1.10943-.91553 2.00867-2.04505 2.00867-1.12953 0-2.04506-.89924-2.04506-2.00867 0-1.10942.91553-2.008662 2.04506-2.008662z" fill="#2d6645" fill-rule="evenodd"/><path clip-rule="evenodd" d="m4.80845 3.09863c2.26125 0 4.09452 1.80065 4.09452 4.02384 0 2.22101-1.83327 4.02163-4.09452 4.02163s-4.094522-1.80062-4.094522-4.02163c0-2.22319 1.833272-4.02384 4.094522-4.02384z" fill="#367a46" fill-rule="evenodd"/><path d="m8.01551.0561523c-.64351 0-1.16518.4773837-1.16518 1.0664977 0 .03493.00186.06947.00548.10352.03144.29579.08352.61056-.04517.87873l-.05667.1181.24995-.0805c.24107-.07764.49873-.01519.74827.02811.07843.01361.16332.01853.26332.01853.6435 0 1.16517-.47738 1.16517-1.06649 0-.589114-.52167-1.0664977-1.16517-1.0664977z" fill="#bed700"/><path clip-rule="evenodd" d="m15.3249 6.46143c1.0832 0 1.9612.8624 1.9612 1.92416 0 1.06392-.878 1.92631-1.9612 1.92631s-1.9613-.86239-1.9613-1.92631c0-1.06176.8781-1.92416 1.9613-1.92416z" fill="#bed700" fill-rule="evenodd"/><path d="m5.35944 10.6738c-.52651 0-.95332.3819-.95332.8532 0 .2893.05864.6002-.06882.8599l-.01003.0204.14268-.0449c.23686-.0746.49157-.0126.73872.0115.04608.0045.09562.0063.15077.0063.52651 0 .95332-.3819.95332-.8532s-.42681-.8532-.95332-.8532z" fill="#bed700"/><path d="m12.4771 11.2676c.5265 0 .9533.3819.9533.8532 0 .2893-.0586.6001.0689.8598l.01.0205-.1427-.045c-.2369-.0746-.4916-.0126-.7387.0116-.0461.0045-.0956.0063-.1508.0063-.5265 0-.9533-.3819-.9533-.8532s.4268-.8532.9533-.8532z" fill="#bed700"/><path d="m1.75085 8.72363c.52651 0 .95332.38191.95332.8532 0 .28929-.05864.60017.06882.85987l.01003.0204-.14268-.0449c-.23686-.0746-.49157-.0126-.73872.0115-.04608.0045-.09562.0063-.15077.0063-.5265 0-.953321-.3819-.953321-.85317 0-.47129.426821-.8532.953321-.8532z" fill="#bed700"/><path d="m3.73633 1.78955c.5265 0 .95332.38191.95332.8532 0 .28929-.05864.60015.06882.85985l.01002.02043-.14267-.04493c-.23687-.07459-.49157-.01259-.73872.01155-.04609.0045-.09562.00629-.15077.00629-.52651 0-.95333-.3819-.95333-.85319s.42682-.8532.95333-.8532z" fill="#bed700"/><path clip-rule="evenodd" d="m9.90023 0c.41477 0 .75227.331528.75227.738895 0 .407365-.3375.738895-.75227.738895-.41475 0-.75228-.33153-.75228-.738895 0-.407367.33753-.738895.75228-.738895z" fill="#2d6645" fill-rule="evenodd"/><path clip-rule="evenodd" d="m16.2074 5.90039c.4148 0 .7523.32936.7523.7389 0 .40736-.3375.73672-.7523.73672-.4147 0-.7523-.32936-.7523-.73672 0-.40954.3376-.7389.7523-.7389z" fill="#2d6645" fill-rule="evenodd"/><path d="m11.6495.866699c-2.6111 0-4.72779 1.948811-4.72779 4.353741 0 .67614.15704 1.09597.45269 1.58865.12815.21356.17159.47038.09322.70679-.22916.69131-.53382 1.34131-1.14644 1.99079-.58478.61993 1.77391-.10143 2.69227-.39827.22502-.07273.4691-.0496.67971.05798.69744.35624 1.02674.40779 1.95634.40779 2.6111 0 4.7277-1.94881 4.7277-4.35373 0-2.40493-2.1166-4.353741-4.7277-4.353741z" fill="#57b34c"/><g fill="#213551"><path clip-rule="evenodd" d="m7.09393 22.0215h1.72517v.6977h-1.72517z" fill-rule="evenodd"/><path clip-rule="evenodd" d="m8.33191 20.6157h1.72739v.6956h-1.72739z" fill-rule="evenodd"/><path clip-rule="evenodd" d="m9.59131 19.105h1.32589v.6977h-1.32589z" fill-rule="evenodd"/><path clip-rule="evenodd" d="m7.19354 18.269h1.32587v.6978h-1.32587z" fill-rule="evenodd"/><path clip-rule="evenodd" d="m8.61365 17.062h1.65675v.6956h-1.65675z" fill-rule="evenodd"/><path clip-rule="evenodd" d="m7.93671 15.6533h1.25747v.6977h-1.25747z" fill-rule="evenodd"/><path d="m7.61449 14.5503h-.77434v3.7508h.77434z"/><path d="m11.2787 14.7368h-.7743v4.4226h.7743z"/></g></svg>