<svg fill="none" height="14" viewBox="0 0 14 14" width="14" xmlns="http://www.w3.org/2000/svg"><path d="m6.99952 6.98547c.5193.00019 1.027-.15362 1.45887-.44199.43186-.28836.7685-.69832.96731-1.17802.19882-.47969.25089-1.00757.14963-1.51686-.10127-.50929-.35132-.97711-.71852-1.34428-.36721-.36717-.83507-.6172-1.34441-.71845-.50933-.10126-1.03726-.04919-1.517.1496-.47974.1988-.88974.53541-1.17813.96723-.28839.43183-.44222.93948-.44203 1.45874 0 .69593.27649 1.36337.76863 1.85547.49215.4921 1.15965.76856 1.85565.76856zm0 1.31202c-1.75209.00096-5.24952.87982-5.24952 2.62601v1.312h10.5v-1.312c0-1.74619-3.49743-2.62601-5.25048-2.62601z" fill="#08274d" fill-opacity=".3"/></svg>