<svg width="14" height="14" viewBox="0 0 14 14" fill="none" xmlns="http://www.w3.org/2000/svg">
<g id="price">
<path id="Subtract" fill-rule="evenodd" clip-rule="evenodd" d="M7 13.125C10.3827 13.125 13.125 10.3827 13.125 7C13.125 3.61726 10.3827 0.875 7 0.875C3.61726 0.875 0.875 3.61726 0.875 7C0.875 10.3827 3.61726 13.125 7 13.125ZM5.4115 9.46948L5.4115 10.3671L6.59583 10.3671L6.59583 9.46948L8.42871 9.46948L8.42871 8.91962L6.59583 8.91962L6.59583 8.04547L7.79895 8.04547C8.24072 8.04547 8.62767 7.95618 8.95978 7.77759C9.29189 7.599 9.55037 7.35305 9.73523 7.03973C9.92009 6.72642 10.0125 6.36768 10.0125 5.9635L10.0125 5.9541C10.0125 5.54993 9.92165 5.19118 9.73993 4.87787C9.56134 4.56142 9.30912 4.3139 8.98328 4.13531C8.66056 3.95673 8.28145 3.86743 7.84595 3.86743L5.4115 3.86743L5.4115 7.49561L4.49976 7.49561L4.49976 8.04547L5.4115 8.04547L5.4115 8.91962L4.49976 8.91962L4.49976 9.46948L5.4115 9.46948ZM7.50287 7.10083L6.59583 7.10083L6.59583 4.84027L7.50757 4.84027C7.93994 4.84027 8.26422 4.94053 8.48041 5.14105C8.69973 5.34157 8.80939 5.61572 8.80939 5.9635L8.80939 5.9729C8.80939 6.32381 8.69973 6.59953 8.48041 6.80005C8.26422 7.00057 7.93838 7.10083 7.50287 7.10083Z" fill="#08274D" fill-opacity="0.3"/>
</g>
</svg>
