<svg fill="none" height="14" viewBox="0 0 14 14" width="14" xmlns="http://www.w3.org/2000/svg"><path clip-rule="evenodd" d="m7 13.125c3.3827 0 6.125-2.7423 6.125-6.125 0-3.38274-2.7423-6.125-6.125-6.125-3.38274 0-6.125 2.74226-6.125 6.125 0 3.3827 2.74226 6.125 6.125 6.125zm-1.5885-3.65552v.89762h1.18433v-.89762h1.83288v-.54986h-1.83288v-.87415h1.20312c.44177 0 .82872-.08929 1.16083-.26788s.59059-.42454.77545-.73786c.18486-.31331.27727-.67205.27727-1.07623v-.0094c0-.40417-.09085-.76292-.27257-1.07623-.17859-.31645-.43081-.56397-.75665-.74256-.32272-.17858-.70183-.26788-1.13733-.26788h-2.43445v3.62818h-.91174v.54986h.91174v.87415h-.91174v.54986zm2.09137-2.36865h-.90704v-2.26056h.91174c.43237 0 .75665.10026.97284.30078.21932.20052.32898.47467.32898.82245v.0094c0 .35091-.10966.62663-.32898.82715-.21619.20052-.54203.30078-.97754.30078z" fill="#08274d" fill-opacity=".3" fill-rule="evenodd"/></svg>