<svg width="16" height="16" viewBox="0 0 16 16" fill="none" xmlns="http://www.w3.org/2000/svg">
<path fill-rule="evenodd" clip-rule="evenodd" d="M7.99609 7.12149L3.30801 2.4334C3.06649 2.19188 2.67491 2.19188 2.4334 2.4334V2.4334C2.19188 2.67491 2.19188 3.06649 2.4334 3.30801L7.12149 7.99609L2.4334 12.6842C2.19188 12.9257 2.19188 13.3173 2.4334 13.5588V13.5588C2.67491 13.8003 3.06649 13.8003 3.30801 13.5588L7.99609 8.8707L12.6842 13.5588C12.9257 13.8003 13.3173 13.8003 13.5588 13.5588V13.5588C13.8003 13.3173 13.8003 12.9257 13.5588 12.6842L8.8707 7.99609L13.5588 3.30801C13.8003 3.06649 13.8003 2.67491 13.5588 2.4334V2.4334C13.3173 2.19188 12.9257 2.19188 12.6842 2.4334L7.99609 7.12149Z" fill="#08274D" fill-opacity="0.3"/>
<path fill-rule="evenodd" clip-rule="evenodd" d="M7.99609 7.12149L3.30801 2.4334C3.06649 2.19188 2.67491 2.19188 2.4334 2.4334V2.4334C2.19188 2.67491 2.19188 3.06649 2.4334 3.30801L7.12149 7.99609L2.4334 12.6842C2.19188 12.9257 2.19188 13.3173 2.4334 13.5588V13.5588C2.67491 13.8003 3.06649 13.8003 3.30801 13.5588L7.99609 8.8707L12.6842 13.5588C12.9257 13.8003 13.3173 13.8003 13.5588 13.5588V13.5588C13.8003 13.3173 13.8003 12.9257 13.5588 12.6842L8.8707 7.99609L13.5588 3.30801C13.8003 3.06649 13.8003 2.67491 13.5588 2.4334V2.4334C13.3173 2.19188 12.9257 2.19188 12.6842 2.4334L7.99609 7.12149Z" fill="#08274D" fill-opacity="0.3"/>
</svg>
