<svg width="88" height="88" viewBox="0 0 88 88" fill="none" xmlns="http://www.w3.org/2000/svg">
<rect width="88" height="88" fill="white"/>
<path d="M41.4644 28.8337C45.2846 28.8337 48.3813 25.737 48.3813 21.9168C48.3813 18.0966 45.2846 15 41.4644 15C37.6448 15 34.5476 18.0966 34.5476 21.9168C34.5476 25.737 37.6448 28.8337 41.4644 28.8337Z" fill="#23719F" fill-opacity="0.5"/>
<path d="M17.3056 42.5382C18.5788 42.5382 19.6112 41.5058 19.6112 40.2326C19.6112 38.9594 18.5788 37.927 17.3056 37.927C16.0319 37.927 15 38.9594 15 40.2326C15 41.5058 16.0319 42.5382 17.3056 42.5382Z" fill="#23719F" fill-opacity="0.5"/>
<path d="M28.6703 31.661C30.6954 30.6574 31.4319 28.603 30.6964 25.8599C29.8426 22.6732 27.7331 21.2838 24.9 22.0428C22.0669 22.8019 20.9346 25.0601 21.7885 28.2474C22.5234 30.9893 24.1883 32.401 26.4434 32.2576L26.6884 33.1716C26.3513 33.3368 26.0358 33.5596 25.7564 33.8406C24.4095 35.1951 24.4162 37.3849 25.7708 38.7313L31.3907 44.3187C33.193 46.1112 36.1059 46.1066 37.9031 44.309L40.8412 41.3698L42.504 47.5769L35.4754 54.6095C34.9042 55.1813 34.493 55.893 34.2835 56.6738L31.3259 67.6908C30.8308 69.5358 31.9249 71.4327 33.7694 71.9278L34.0952 71.9988C35.8327 72.2917 37.5402 71.2202 38.0061 69.4843L40.8036 59.0622L46.8954 52.9678L46.2099 55.4953C45.8888 56.6805 46.0535 57.9445 46.6675 59.0077L53.3821 70.633C54.3372 72.2871 56.4525 72.8536 58.1064 71.8985C59.7606 70.9433 60.3267 68.8281 59.372 67.1741L53.136 56.3763L55.7396 46.7767L55.7376 46.7762C56.0026 45.6862 56.0057 44.5164 55.6949 43.3569L53.308 34.4484C53.2966 34.4052 53.2843 34.362 53.2719 34.3192L58.4302 32.9375L63.6754 38.1996L63.9373 38.4379C65.294 39.5475 67.298 39.4719 68.5661 38.2079C69.9191 36.859 69.9227 34.6698 68.5743 33.3167L62.3872 27.1101C61.2221 25.9414 59.5212 25.4843 57.9273 25.9115L45.9222 29.1286C43.5774 29.7569 41.4397 30.9916 39.7227 32.7079L34.636 37.7932L30.647 33.8269L30.3835 33.5901C29.9708 33.2551 29.4983 33.0297 29.0058 32.9134L28.6703 31.661Z" fill="#23719F" fill-opacity="0.5"/>
</svg>
